<?xml version="1.0" encoding="utf-8"?>
<!-- Generator: Adobe Illustrator 23.0.0, SVG Export Plug-In . SVG Version: 6.00 Build 0)  -->
<svg version="1.1" id="Layer_1" xmlns="http://www.w3.org/2000/svg" xmlns:xlink="http://www.w3.org/1999/xlink" x="0px" y="0px"
	 viewBox="0 0 137 135" style="enable-background:new 0 0 137 135;" xml:space="preserve">
<style type="text/css">
	.st0{fill:#FFFFFF;}
</style>
<g>
	<g>
		<path class="st0" d="M138,136c-45.6,0-91.2,0-136.9,0c0-44.8,0-89.7,0-134.8c45.6,0,91.2,0,136.9,0C138,46,138,90.9,138,136z
			 M15.2,72.1c0,14.3-0.1,28.6,0,43c0.1,8.3,3.4,11.9,11.3,12c25,0.1,50,0.1,74.9-0.1c1.7,0,3.9-0.9,5.2-2.2
			c5-4.6,9.6-9.7,14.6-14.4c2.6-2.5,3.7-5.1,3.7-8.7c-0.2-14-0.1-28-0.1-42c0-10.3,0.1-20.7-0.1-31c-0.1-7.1-3-10.1-9.5-11.2
			c-1.5-0.2-3.1-1.4-4.1-2.5c-2-2.3-3.7-2.5-5.7-0.1c-3.1,3.8-10.7,3.9-13.6,0.1c-1.9-2.5-3.8-2.4-5.7,0c-2.8,3.6-10.6,3.8-13.2,0.2
			c-2-2.7-3.8-2.8-5.9-0.1c-2.7,3.6-10.6,3.5-13.3,0c-2-2.7-3.9-2.6-5.9,0.2c-2.2,3.2-10.9,3.4-13.1,0.1c-2.1-3.1-3.9-3.1-6.1-0.1
			c-0.7,0.9-1.8,1.9-2.8,2.1c-8.8,1.8-10.7,4-10.7,13.1C15.2,44.5,15.2,58.3,15.2,72.1z"/>
		<path d="M15.2,72.1c0-13.8,0-27.6,0-41.5c0-9.1,1.9-11.3,10.7-13.1c1.1-0.2,2.2-1.2,2.8-2.1c2.2-3,4-3,6.1,0.1
			c2.2,3.2,10.9,3.1,13.1-0.1c1.9-2.8,3.8-2.9,5.9-0.2c2.7,3.5,10.5,3.5,13.3,0c2.1-2.7,3.9-2.6,5.9,0.1c2.6,3.6,10.4,3.4,13.2-0.2
			c1.9-2.4,3.7-2.5,5.7,0c2.9,3.8,10.5,3.7,13.6-0.1c2-2.4,3.7-2.2,5.7,0.1c1,1.2,2.6,2.3,4.1,2.5c6.6,1.1,9.4,4.1,9.5,11.2
			c0.2,10.3,0,20.6,0.1,31c0,14-0.1,28,0.1,42c0.1,3.7-1,6.3-3.7,8.7c-5,4.6-9.6,9.7-14.6,14.4c-1.3,1.2-3.4,2.1-5.2,2.2
			c-25,0.1-50,0.1-74.9,0.1c-7.8,0-11.2-3.6-11.3-12C15.1,100.8,15.2,86.4,15.2,72.1z M21.1,51.7c-0.3,0.7-0.6,1-0.6,1.3
			c-0.1,21.2-0.1,42.3-0.1,63.5c0,4.3,2.7,5.5,6.6,5.5c23.8-0.1,47.7-0.1,71.5,0c3.6,0,4.9-1,4.9-4.8c0-10.1,1.4-11.5,11.1-11.4
			c4.4,0.1,5.3-1.7,5.2-5.6c-0.2-11.2-0.1-22.3-0.1-33.5c0-4.9,0-9.9,0-15.1C86.4,51.7,53.8,51.7,21.1,51.7z M59.4,34
			c0.3,0,0.7,0,1,0c0.6,2,1.3,4,2.3,7.3c2.5-8.8,1.4-10.1-6.8-9.2c0.2,2.6,0.3,5.1,0.5,7.7c0.5,0,0.9,0.1,1.4,0.1
			C58.3,38,58.9,36,59.4,34z M52.9,40.3c0.5-0.5,1-0.9,1.5-1.4c-1.2-2.5-2.3-5.1-3.9-7.4c-0.3-0.4-2.3,0.3-4.6,0.6
			c1.8,1,2.5,1.4,2.6,1.4c-0.8,1.8-1.4,3.4-2.1,5C48.5,39.2,50.7,39.8,52.9,40.3z M79.2,33.5c-0.7,1.8-1.4,3.5-2,5.2
			c2.2,0.5,4.4,1,6.6,1.5c0.5-0.5,0.9-1,1.4-1.6c-1.3-2.4-2.5-4.9-4.1-7.1c-0.3-0.4-2.3,0.3-4.8,0.8C78.4,33.2,79.2,33.5,79.2,33.5z
			 M95.8,43.3c4.2-2.2,4.3-7,5.8-11.1c-0.6-0.6-1.3-1.2-1.9-1.7c-0.5,1.4-1.1,2.9-1.6,4.3c-1.3-1.3-2.2-2.4-3.9-4.1
			C94.8,35.4,95.2,38.9,95.8,43.3z M71.2,37.8c-0.4,0-0.7,0-1.1,0c-0.6-2-1.2-4.1-2.1-6.9c-3,7.8-1.4,9.5,6.7,8.4
			c-0.2-2.5-0.4-5-0.5-7.5c-0.5,0-1,0-1.4,0C72.2,33.8,71.7,35.8,71.2,37.8z M44.1,28.6c-0.6-0.1-1.2-0.2-1.8-0.3
			c-1,3.7-2.1,7.4-3.2,11.6c0.8-0.3,3.4-0.4,3.6-1.2C43.5,35.4,43.7,32,44.1,28.6z"/>
		<path class="st0" d="M21.1,51.7c32.8,0,65.4,0,98.6,0c0,5.2,0,10.2,0,15.1c0,11.2-0.1,22.3,0.1,33.5c0.1,3.9-0.8,5.7-5.2,5.6
			c-9.8-0.2-11.1,1.3-11.1,11.4c0,3.8-1.3,4.8-4.9,4.8c-23.8-0.1-47.7-0.1-71.5,0c-4,0-6.6-1.2-6.6-5.5c0-21.2,0-42.3,0.1-63.5
			C20.5,52.7,20.7,52.4,21.1,51.7z M65,80.3c0,8.7-0.1,16.7,0.1,24.7c0,1.3,1.5,3.6,2.4,3.7c3.7,0.4,7.5,0.2,11.4,0.2
			c0.2-1.7,0.5-2.8,0.5-4c0-13.8,0.1-27.6-0.1-41.4c0-1.4-1.3-4.1-2-4.1c-3.1,0-8.4-0.1-8.9,1.4c-2.6,6.9-7.9,8.9-14.4,9.7
			c0,3.4,0,6.4,0,9.9C57.7,80.3,61,80.3,65,80.3z"/>
		<path class="st0" d="M59.4,34c-0.6,2-1.1,4-1.7,6c-0.5,0-0.9-0.1-1.4-0.1c-0.2-2.6-0.3-5.2-0.5-7.7c8.2-0.9,9.3,0.4,6.8,9.2
			c-1-3.3-1.7-5.3-2.3-7.3C60.1,34,59.8,34,59.4,34z"/>
		<path class="st0" d="M52.9,40.3c-2.2-0.6-4.4-1.2-6.6-1.7c0.7-1.6,1.3-3.2,2.1-5c0,0-0.8-0.4-2.6-1.4c2.4-0.3,4.4-1,4.6-0.6
			c1.5,2.3,2.6,4.9,3.9,7.4C53.8,39.4,53.4,39.9,52.9,40.3z"/>
		<path class="st0" d="M79.2,33.5c0,0-0.8-0.3-2.9-1.2c2.5-0.4,4.5-1.2,4.8-0.8c1.6,2.2,2.8,4.7,4.1,7.1c-0.5,0.5-0.9,1-1.4,1.6
			c-2.2-0.5-4.4-1-6.6-1.5C77.8,37,78.5,35.3,79.2,33.5z"/>
		<path class="st0" d="M95.8,43.3c-0.6-4.4-1-7.9-1.6-12.6c1.7,1.8,2.6,2.8,3.9,4.1c0.5-1.4,1.1-2.9,1.6-4.3
			c0.6,0.6,1.3,1.2,1.9,1.7C100.1,36.3,99.9,41.1,95.8,43.3z"/>
		<path class="st0" d="M71.2,37.8c0.5-2,1-4,1.5-6c0.5,0,1,0,1.4,0c0.2,2.5,0.4,5,0.5,7.5c-8.1,1.1-9.6-0.7-6.7-8.4
			c0.9,2.9,1.5,4.9,2.1,6.9C70.5,37.8,70.8,37.8,71.2,37.8z"/>
		<path class="st0" d="M44.1,28.6c-0.4,3.4-0.6,6.8-1.4,10.1c-0.2,0.8-2.8,1-3.6,1.2c1.2-4.2,2.2-7.9,3.2-11.6
			C42.9,28.5,43.5,28.6,44.1,28.6z"/>
		<path d="M65,80.3c-4,0-7.3,0-10.9,0c0-3.5,0-6.5,0-9.9c6.4-0.7,11.7-2.8,14.4-9.7c0.6-1.5,5.8-1.4,8.9-1.4c0.7,0,2,2.6,2,4.1
			c0.2,13.8,0.1,27.6,0.1,41.4c0,1.1-0.3,2.2-0.5,4c-3.9,0-7.7,0.3-11.4-0.2c-1-0.1-2.4-2.4-2.4-3.7C64.9,97,65,89,65,80.3z"/>
	</g>
</g>
</svg>
